<svg xmlns="http://www.w3.org/2000/svg" xmlns:xlink="http://www.w3.org/1999/xlink" width="1919" zoomAndPan="magnify" viewBox="0 0 1440 396.749985" height="529" preserveAspectRatio="xMidYMid meet" version="1.0"><defs><g/></defs><path stroke-linecap="butt" transform="matrix(0.000000000000000046, -0.749751, 0.749528, 0.000000000000000046, 205.934442, 276.977197)" fill="none" stroke-linejoin="miter" d="M 0.00084652 4.001389 L 209.94561 4.001389 " stroke="#ffffff" stroke-width="8" stroke-opacity="1" stroke-miterlimit="4"/><g fill="#ffffff" fill-opacity="1"><g transform="translate(6.119148, 240.885431)"><g><path d="M 30.515625 -6.425781 L 12.820312 -6.425781 L 24.582031 -16.277344 C 28.363281 -19.488281 30.894531 -23.738281 30.894531 -28.011719 C 30.894531 -36.175781 25.152344 -41.976562 16.714844 -41.976562 C 10.671875 -41.976562 4.546875 -38.054688 2.914062 -30.679688 C 2.722656 -30.023438 2.96875 -29.480469 3.566406 -29.289062 L 7.8125 -27.574219 C 8.519531 -27.328125 9.226562 -27.492188 9.445312 -28.363281 C 9.882812 -32.664062 13.121094 -35.167969 16.796875 -35.167969 C 20.878906 -35.167969 24.007812 -32.121094 24.007812 -28.039062 C 24.007812 -25.777344 22.375 -23.191406 19.652344 -20.796875 L 3.046875 -5.824219 C 2.804688 -5.609375 2.667969 -5.117188 2.667969 -4.492188 L 2.667969 -1.226562 C 2.667969 -0.488281 3.238281 0 4.164062 0 L 30.652344 0 C 31.46875 0 31.984375 -0.488281 31.984375 -1.28125 L 31.984375 -5.0625 C 31.984375 -5.90625 31.441406 -6.425781 30.515625 -6.425781 Z M 30.515625 -6.425781 "/></g></g><g transform="translate(41.179673, 240.885431)"><g><path d="M 23.765625 0.652344 C 35.660156 0.652344 45.050781 -8.710938 45.050781 -20.660156 C 45.050781 -32.609375 35.660156 -41.976562 23.765625 -41.976562 C 11.839844 -41.976562 2.449219 -32.609375 2.449219 -20.660156 C 2.449219 -8.710938 11.839844 0.652344 23.765625 0.652344 Z M 23.765625 -6.261719 C 15.707031 -6.261719 9.390625 -12.601562 9.390625 -20.660156 C 9.390625 -28.746094 15.707031 -35.058594 23.765625 -35.058594 C 31.792969 -35.058594 38.109375 -28.746094 38.109375 -20.660156 C 38.109375 -12.601562 31.792969 -6.261719 23.765625 -6.261719 Z M 23.765625 -16.824219 C 25.886719 -16.824219 27.546875 -18.511719 27.546875 -20.660156 C 27.546875 -22.839844 25.886719 -24.527344 23.765625 -24.527344 C 21.613281 -24.527344 19.953125 -22.867188 19.953125 -20.660156 C 19.953125 -18.511719 21.613281 -16.824219 23.765625 -16.824219 Z M 23.765625 -16.824219 "/></g></g><g transform="translate(88.68015, 240.885431)"><g><path d="M 30.515625 -6.425781 L 12.820312 -6.425781 L 24.582031 -16.277344 C 28.363281 -19.488281 30.894531 -23.738281 30.894531 -28.011719 C 30.894531 -36.175781 25.152344 -41.976562 16.714844 -41.976562 C 10.671875 -41.976562 4.546875 -38.054688 2.914062 -30.679688 C 2.722656 -30.023438 2.96875 -29.480469 3.566406 -29.289062 L 7.8125 -27.574219 C 8.519531 -27.328125 9.226562 -27.492188 9.445312 -28.363281 C 9.882812 -32.664062 13.121094 -35.167969 16.796875 -35.167969 C 20.878906 -35.167969 24.007812 -32.121094 24.007812 -28.039062 C 24.007812 -25.777344 22.375 -23.191406 19.652344 -20.796875 L 3.046875 -5.824219 C 2.804688 -5.609375 2.667969 -5.117188 2.667969 -4.492188 L 2.667969 -1.226562 C 2.667969 -0.488281 3.238281 0 4.164062 0 L 30.652344 0 C 31.46875 0 31.984375 -0.488281 31.984375 -1.28125 L 31.984375 -5.0625 C 31.984375 -5.90625 31.441406 -6.425781 30.515625 -6.425781 Z M 30.515625 -6.425781 "/></g></g><g transform="translate(123.740674, 240.885431)"><g><path d="M 30.515625 -6.425781 L 12.820312 -6.425781 L 24.582031 -16.277344 C 28.363281 -19.488281 30.894531 -23.738281 30.894531 -28.011719 C 30.894531 -36.175781 25.152344 -41.976562 16.714844 -41.976562 C 10.671875 -41.976562 4.546875 -38.054688 2.914062 -30.679688 C 2.722656 -30.023438 2.96875 -29.480469 3.566406 -29.289062 L 7.8125 -27.574219 C 8.519531 -27.328125 9.226562 -27.492188 9.445312 -28.363281 C 9.882812 -32.664062 13.121094 -35.167969 16.796875 -35.167969 C 20.878906 -35.167969 24.007812 -32.121094 24.007812 -28.039062 C 24.007812 -25.777344 22.375 -23.191406 19.652344 -20.796875 L 3.046875 -5.824219 C 2.804688 -5.609375 2.667969 -5.117188 2.667969 -4.492188 L 2.667969 -1.226562 C 2.667969 -0.488281 3.238281 0 4.164062 0 L 30.652344 0 C 31.46875 0 31.984375 -0.488281 31.984375 -1.28125 L 31.984375 -5.0625 C 31.984375 -5.90625 31.441406 -6.425781 30.515625 -6.425781 Z M 30.515625 -6.425781 "/></g></g></g><g fill="#ffffff" fill-opacity="1"><g transform="translate(10.062872, 178.617322)"><g><path d="M 15.21875 -44.511719 L 11.324219 -44.511719 C 10.859375 -44.511719 10.066406 -44.394531 8.867188 -43.808594 L 3.191406 -41.117188 C 2.605469 -40.796875 2.371094 -40.269531 2.371094 -39.480469 L 2.371094 -34.359375 C 2.371094 -33.539062 3.074219 -33.011719 3.980469 -33.421875 L 9.128906 -35.675781 L 9.128906 -1.582031 C 9.128906 -0.585938 9.714844 0.0273438 10.710938 0.0273438 L 14.867188 0.0273438 C 15.863281 0.0273438 16.535156 -0.613281 16.535156 -1.609375 L 16.535156 -43.050781 C 16.535156 -44.015625 16.097656 -44.511719 15.21875 -44.511719 Z M 15.21875 -44.511719 "/></g></g></g><g fill="#ffffff" fill-opacity="1"><g transform="translate(34.681244, 178.617322)"><g><path d="M 19.140625 -45.128906 C 9.980469 -45.128906 2.839844 -38.015625 2.839844 -28.972656 C 2.839844 -20.28125 9.277344 -13.636719 16.855469 -13.636719 C 20.105469 -13.636719 23.03125 -14.808594 24.992188 -16.5625 C 22.535156 -11.734375 17.121094 -6.027344 11.03125 -1.757812 C 9.804688 -0.820312 10.300781 0.0585938 11.96875 0.0585938 L 18 0.0585938 C 18.671875 0.0585938 19.636719 -0.378906 20.25 -0.878906 C 28.210938 -7.113281 35.46875 -16.417969 35.46875 -28.417969 C 35.46875 -38.132812 28.300781 -45.128906 19.140625 -45.128906 Z M 19.199219 -20.105469 C 14.222656 -20.105469 10.300781 -23.96875 10.300781 -28.886719 C 10.300781 -33.773438 14.222656 -37.664062 19.199219 -37.664062 C 24.113281 -37.664062 28.007812 -33.773438 28.007812 -28.886719 C 28.007812 -23.96875 24.113281 -20.105469 19.199219 -20.105469 Z M 19.199219 -20.105469 "/></g></g></g><g fill="#ffffff" fill-opacity="1"><g transform="translate(75.922421, 178.617322)"><g><path d="M 34.707031 -12.90625 C 34.648438 -17.96875 31.8125 -21.917969 27.070312 -23.96875 C 30.378906 -25.871094 32.339844 -29.0625 32.367188 -33.039062 C 32.484375 -40.355469 27.101562 -45.1875 18.90625 -45.1875 C 10.859375 -45.1875 5.5 -40.355469 5.5 -33.039062 C 5.5 -29.0625 7.433594 -25.871094 10.742188 -23.96875 C 6 -21.917969 3.160156 -17.96875 3.101562 -12.90625 C 3.015625 -4.710938 9.335938 0.820312 18.90625 0.820312 C 28.503906 0.820312 34.796875 -4.710938 34.707031 -12.90625 Z M 18.90625 -37.929688 C 22.269531 -37.929688 24.671875 -35.644531 24.671875 -32.542969 C 24.671875 -29.410156 22.269531 -27.128906 18.90625 -27.128906 C 15.570312 -27.128906 13.140625 -29.410156 13.140625 -32.542969 C 13.140625 -35.644531 15.570312 -37.929688 18.90625 -37.929688 Z M 18.90625 -6.4375 C 14.429688 -6.4375 11.265625 -9.511719 11.265625 -13.578125 C 11.265625 -17.707031 14.429688 -20.71875 19.050781 -20.71875 C 23.441406 -20.71875 26.660156 -17.707031 26.660156 -13.578125 C 26.660156 -9.511719 23.441406 -6.4375 18.90625 -6.4375 Z M 18.90625 -6.4375 "/></g></g></g><g fill="#ffffff" fill-opacity="1"><g transform="translate(116.490491, 178.617322)"><g><path d="M 20.632812 -29.910156 C 17.824219 -29.910156 15.070312 -28.769531 13.285156 -27.246094 L 14.222656 -37.8125 L 30.964844 -37.8125 C 31.839844 -37.8125 32.515625 -38.542969 32.515625 -39.480469 L 32.515625 -42.902344 C 32.515625 -43.78125 31.78125 -44.453125 30.847656 -44.453125 L 8.984375 -44.453125 C 8.28125 -44.453125 7.609375 -43.839844 7.519531 -43.019531 L 5.617188 -20.835938 C 5.53125 -19.960938 6.203125 -19.082031 7.199219 -19.082031 L 11.382812 -19.082031 C 12.144531 -19.082031 12.757812 -19.550781 13.199219 -19.902344 C 14.601562 -21.597656 17.089844 -22.828125 20.046875 -22.828125 C 24.613281 -22.828125 28.007812 -19.34375 28.007812 -14.574219 C 28.007812 -10.007812 24.347656 -6.554688 19.519531 -6.554688 C 16.183594 -6.554688 12.261719 -8.78125 10.332031 -11.792969 C 9.714844 -12.527344 8.808594 -12.789062 8.195312 -12.320312 L 4.945312 -9.480469 C 4.300781 -8.957031 4.125 -7.960938 4.566406 -7.230469 C 7.082031 -2.632812 13.753906 0.703125 19.578125 0.703125 C 28.242188 0.703125 35.410156 -6.027344 35.410156 -14.574219 C 35.410156 -23.207031 29.351562 -29.910156 20.632812 -29.910156 Z M 20.632812 -29.910156 "/></g></g></g><g fill="#ffffff" fill-opacity="1"><g transform="translate(258.607849, 226.220797)"><g><path d="M 57.964844 -7.195312 L 17.179688 -7.195312 L 17.179688 -25.949219 L 49.917969 -25.949219 C 51.039062 -25.949219 51.714844 -26.488281 51.714844 -27.339844 L 51.714844 -31.433594 C 51.714844 -32.378906 51.039062 -32.917969 49.917969 -32.917969 L 17.179688 -32.917969 L 17.179688 -61.160156 L 57.335938 -61.160156 C 58.324219 -61.160156 58.910156 -61.699219 58.910156 -62.597656 L 58.910156 -66.960938 C 58.910156 -67.769531 58.324219 -68.308594 57.335938 -68.308594 L 11.109375 -68.308594 C 10.074219 -68.308594 9.667969 -67.859375 9.667969 -66.914062 L 9.667969 -1.4375 C 9.667969 -0.449219 10.074219 0 11.109375 0 L 58.324219 0 C 59.269531 0 59.898438 -0.539062 59.898438 -1.394531 L 59.898438 -5.53125 C 59.898438 -6.566406 59.136719 -7.195312 57.964844 -7.195312 Z M 57.964844 -7.195312 "/></g></g></g><g fill="#ffffff" fill-opacity="1"><g transform="translate(323.095649, 226.220797)"><g><path d="M 12.679688 -68.445312 L 8.003906 -68.445312 C 7.285156 -68.445312 6.96875 -68.128906 6.96875 -67.410156 L 6.96875 -0.945312 C 6.96875 -0.269531 7.285156 0.0898438 8.003906 0.0898438 L 12.679688 0.0898438 C 13.402344 0.0898438 13.804688 -0.269531 13.804688 -0.945312 L 13.804688 -67.410156 C 13.804688 -68.128906 13.402344 -68.445312 12.679688 -68.445312 Z M 12.679688 -68.445312 "/></g></g></g><g fill="#ffffff" fill-opacity="1"><g transform="translate(343.812666, 226.220797)"><g/></g></g><g fill="#ffffff" fill-opacity="1"><g transform="translate(370.641415, 226.220797)"><g><path d="M 3.777344 -22.664062 C 3.777344 -9.488281 14.300781 0.945312 27.703125 0.945312 C 41.011719 0.945312 51.445312 -9.488281 51.445312 -22.664062 C 51.445312 -35.929688 41.011719 -46.320312 27.703125 -46.320312 C 14.300781 -46.320312 3.777344 -35.929688 3.777344 -22.664062 Z M 10.703125 -22.664062 C 10.703125 -32.332031 18.078125 -39.753906 27.65625 -39.753906 C 37.191406 -39.753906 44.519531 -32.332031 44.519531 -22.664062 C 44.519531 -13.085938 37.191406 -5.621094 27.65625 -5.621094 C 18.078125 -5.621094 10.703125 -13.085938 10.703125 -22.664062 Z M 10.703125 -22.664062 "/></g></g></g><g fill="#ffffff" fill-opacity="1"><g transform="translate(425.826755, 226.220797)"><g><path d="M 37.550781 -42.675781 C 34.535156 -44.925781 30.667969 -46.320312 27.429688 -46.320312 C 21.316406 -46.320312 15.738281 -42.585938 13.042969 -37.191406 L 11.917969 -44.566406 C 11.78125 -45.105469 11.332031 -45.417969 10.792969 -45.417969 L 8.050781 -45.417969 C 7.375 -45.417969 6.96875 -45.015625 6.96875 -44.296875 L 6.96875 -0.988281 C 6.96875 -0.269531 7.328125 0.0898438 8.050781 0.0898438 L 12.679688 0.0898438 C 13.402344 0.0898438 13.804688 -0.269531 13.804688 -0.988281 L 13.804688 -26.9375 C 13.804688 -34.222656 19.335938 -40.292969 26.621094 -40.292969 C 29.003906 -40.292969 31.792969 -39.257812 34.042969 -37.550781 C 34.714844 -37.054688 35.347656 -37.101562 35.796875 -37.773438 L 37.863281 -41.058594 C 38.222656 -41.640625 38.042969 -42.273438 37.550781 -42.675781 Z M 37.550781 -42.675781 "/></g></g></g><g fill="#ffffff" fill-opacity="1"><g transform="translate(466.137265, 226.220797)"><g><path d="M 10.34375 -54.234375 C 12.90625 -54.234375 14.886719 -56.210938 14.886719 -58.730469 C 14.886719 -61.203125 12.90625 -63.273438 10.34375 -63.273438 C 7.824219 -63.273438 5.847656 -61.203125 5.847656 -58.730469 C 5.847656 -56.210938 7.824219 -54.234375 10.34375 -54.234375 Z M 12.679688 -45.417969 L 8.003906 -45.417969 C 7.285156 -45.417969 6.96875 -45.058594 6.96875 -44.339844 L 6.96875 -0.988281 C 6.96875 -0.316406 7.285156 0.046875 8.003906 0.046875 L 12.679688 0.046875 C 13.402344 0.046875 13.804688 -0.316406 13.804688 -0.988281 L 13.804688 -44.339844 C 13.804688 -45.058594 13.402344 -45.417969 12.679688 -45.417969 Z M 12.679688 -45.417969 "/></g></g></g><g fill="#ffffff" fill-opacity="1"><g transform="translate(486.854282, 226.220797)"><g><path d="M 49.78125 -45.417969 L 47.082031 -45.417969 C 46.5 -45.417969 46.09375 -45.105469 45.914062 -44.566406 L 44.609375 -35.839844 C 40.832031 -42.40625 34.132812 -46.410156 26.171875 -46.410156 C 13.535156 -46.410156 3.777344 -36.246094 3.777344 -22.664062 C 3.777344 -9.9375 13.582031 0.316406 26.21875 0.316406 C 33.953125 0.316406 40.519531 -3.507812 44.339844 -9.578125 L 44.25 -2.878906 C 44.160156 6.117188 38.042969 12.230469 28.78125 12.230469 C 24.554688 12.230469 19.023438 10.792969 15.738281 9.445312 C 15.109375 9.21875 14.480469 9.21875 14.210938 9.804688 L 12.816406 12.996094 C 12.457031 13.714844 12.589844 14.34375 13.175781 14.613281 C 17.269531 16.820312 23.382812 18.300781 29.140625 18.257812 C 41.957031 18.167969 50.90625 9.667969 50.90625 -2.832031 L 50.90625 -44.296875 C 50.90625 -45.015625 50.457031 -45.417969 49.78125 -45.417969 Z M 27.386719 -6.339844 C 17.941406 -6.339844 10.65625 -13.625 10.65625 -22.933594 C 10.65625 -32.421875 17.851562 -39.753906 27.339844 -39.753906 C 37.054688 -39.753906 44.386719 -32.421875 44.386719 -22.933594 C 44.386719 -13.625 37.054688 -6.339844 27.386719 -6.339844 Z M 27.386719 -6.339844 "/></g></g></g><g fill="#ffffff" fill-opacity="1"><g transform="translate(544.691081, 226.220797)"><g><path d="M 26.800781 -46.320312 C 13.894531 -46.320312 3.777344 -35.886719 3.777344 -22.621094 C 3.777344 -9.535156 14.164062 0.988281 27.566406 0.988281 C 33.1875 0.988281 39.753906 -1.214844 43.890625 -4.992188 C 44.386719 -5.484375 44.429688 -6.207031 44.027344 -6.699219 L 41.550781 -9.984375 C 41.148438 -10.433594 40.429688 -10.566406 39.886719 -10.117188 C 36.605469 -7.195312 31.929688 -5.578125 27.792969 -5.578125 C 18.886719 -5.578125 11.871094 -11.78125 10.925781 -19.742188 L 45.554688 -19.742188 C 47.621094 -19.742188 49.0625 -22.035156 49.0625 -24.195312 C 49.0625 -36.964844 39.617188 -46.320312 26.800781 -46.320312 Z M 26.621094 -39.84375 C 35.167969 -39.84375 41.460938 -34.222656 42.363281 -26.039062 L 10.972656 -26.039062 C 12.1875 -33.953125 18.664062 -39.84375 26.621094 -39.84375 Z M 26.621094 -39.84375 "/></g></g></g><g fill="#ffffff" fill-opacity="1"><g transform="translate(597.494689, 226.220797)"><g><path d="M 29.816406 -46.410156 C 22.621094 -46.410156 16.054688 -42.273438 13.132812 -36.515625 L 11.917969 -44.566406 C 11.78125 -45.105469 11.332031 -45.417969 10.792969 -45.417969 L 8.050781 -45.417969 C 7.375 -45.417969 6.96875 -45.015625 6.96875 -44.296875 L 6.96875 -0.988281 C 6.96875 -0.269531 7.328125 0.0898438 8.050781 0.0898438 L 12.679688 0.0898438 C 13.402344 0.0898438 13.804688 -0.269531 13.804688 -0.988281 L 13.804688 -27.070312 C 13.804688 -34.175781 20.144531 -40.113281 27.925781 -40.113281 C 35.570312 -40.113281 40.789062 -34.851562 40.789062 -27.476562 L 40.789062 -1.035156 C 40.789062 -0.40625 41.238281 0.046875 41.910156 0.046875 L 46.542969 0.046875 C 47.21875 0.046875 47.621094 -0.40625 47.621094 -1.035156 L 47.621094 -27.835938 C 47.621094 -39.035156 40.292969 -46.410156 29.816406 -46.410156 Z M 29.816406 -46.410156 "/></g></g></g><g fill="#ffffff" fill-opacity="1"><g transform="translate(651.601488, 226.220797)"><g/></g></g><g fill="#ffffff" fill-opacity="1"><g transform="translate(678.430236, 226.220797)"><g><path d="M 49.871094 -70.511719 L 45.195312 -70.511719 C 44.566406 -70.511719 44.117188 -70.109375 44.117188 -69.433594 L 44.207031 -36.558594 C 40.339844 -42.675781 33.816406 -46.410156 26.171875 -46.410156 C 13.535156 -46.410156 3.777344 -36.246094 3.777344 -22.664062 C 3.777344 -9.355469 13.582031 0.898438 26.21875 0.898438 C 34.175781 0.898438 40.921875 -3.191406 44.699219 -9.757812 L 46.050781 -0.765625 C 46.183594 -0.269531 46.589844 0.0898438 47.171875 0.0898438 L 49.917969 0.0898438 C 50.589844 0.0898438 50.996094 -0.359375 50.996094 -1.035156 L 50.996094 -69.433594 C 50.996094 -70.109375 50.589844 -70.511719 49.871094 -70.511719 Z M 27.386719 -5.800781 C 18.167969 -5.800781 10.65625 -13.265625 10.65625 -22.710938 C 10.65625 -32.289062 18.121094 -39.664062 27.339844 -39.664062 C 36.785156 -39.664062 44.386719 -32.289062 44.386719 -22.710938 C 44.386719 -13.265625 36.832031 -5.800781 27.386719 -5.800781 Z M 27.386719 -5.800781 "/></g></g></g><g fill="#ffffff" fill-opacity="1"><g transform="translate(736.356913, 226.220797)"><g><path d="M 26.800781 -46.320312 C 13.894531 -46.320312 3.777344 -35.886719 3.777344 -22.621094 C 3.777344 -9.535156 14.164062 0.988281 27.566406 0.988281 C 33.1875 0.988281 39.753906 -1.214844 43.890625 -4.992188 C 44.386719 -5.484375 44.429688 -6.207031 44.027344 -6.699219 L 41.550781 -9.984375 C 41.148438 -10.433594 40.429688 -10.566406 39.886719 -10.117188 C 36.605469 -7.195312 31.929688 -5.578125 27.792969 -5.578125 C 18.886719 -5.578125 11.871094 -11.78125 10.925781 -19.742188 L 45.554688 -19.742188 C 47.621094 -19.742188 49.0625 -22.035156 49.0625 -24.195312 C 49.0625 -36.964844 39.617188 -46.320312 26.800781 -46.320312 Z M 26.621094 -39.84375 C 35.167969 -39.84375 41.460938 -34.222656 42.363281 -26.039062 L 10.972656 -26.039062 C 12.1875 -33.953125 18.664062 -39.84375 26.621094 -39.84375 Z M 26.621094 -39.84375 "/></g></g></g><g fill="#ffffff" fill-opacity="1"><g transform="translate(789.160521, 226.220797)"><g/></g></g><g fill="#ffffff" fill-opacity="1"><g transform="translate(815.98927, 226.220797)"><g><path d="M 20.011719 -39.527344 C 23.878906 -39.527344 27.117188 -38.089844 29.320312 -35.570312 C 29.859375 -34.988281 30.894531 -34.898438 31.433594 -35.390625 L 33.996094 -37.773438 C 34.714844 -38.449219 34.761719 -39.125 34.132812 -39.84375 C 30.714844 -43.933594 25.585938 -46.320312 20.011719 -46.320312 C 11.242188 -46.320312 5.800781 -40.519531 5.800781 -33.953125 C 5.800781 -26.308594 10.882812 -22.933594 20.238281 -20.144531 C 26.710938 -18.078125 29.90625 -15.828125 29.90625 -12.1875 C 29.90625 -8.320312 25.8125 -5.800781 20.460938 -5.800781 C 16.503906 -5.800781 11.601562 -8.183594 9.308594 -11.289062 C 8.679688 -12.007812 7.78125 -12.050781 7.238281 -11.511719 L 4.453125 -8.632812 C 3.867188 -8.050781 3.734375 -7.375 4.363281 -6.65625 C 7.824219 -2.070312 14.390625 0.945312 20.460938 0.945312 C 29.949219 0.945312 36.875 -3.914062 36.875 -11.917969 C 36.875 -19.5625 31.839844 -23.472656 22.125 -26.441406 C 14.886719 -28.644531 12.679688 -30.488281 12.679688 -33.503906 C 12.679688 -37.011719 15.738281 -39.527344 20.011719 -39.527344 Z M 20.011719 -39.527344 "/></g></g></g><g fill="#ffffff" fill-opacity="1"><g transform="translate(856.704187, 226.220797)"><g><path d="M 46.09375 -45.417969 L 41.417969 -45.417969 C 40.742188 -45.417969 40.339844 -45.058594 40.339844 -44.339844 L 40.339844 -18.257812 C 40.339844 -11.152344 33.996094 -5.214844 26.21875 -5.214844 C 18.574219 -5.214844 13.355469 -10.476562 13.355469 -17.898438 L 13.355469 -44.296875 C 13.355469 -44.925781 12.90625 -45.375 12.230469 -45.375 L 7.554688 -45.375 C 6.925781 -45.375 6.519531 -44.925781 6.519531 -44.296875 L 6.519531 -17.539062 C 6.519531 -6.339844 13.851562 1.035156 24.328125 1.035156 C 31.523438 1.035156 38.089844 -3.101562 41.011719 -8.859375 L 42.226562 -0.765625 C 42.363281 -0.269531 42.8125 0.0898438 43.351562 0.0898438 L 46.09375 0.0898438 C 46.769531 0.0898438 47.171875 -0.359375 47.171875 -1.035156 L 47.171875 -44.339844 C 47.171875 -45.058594 46.769531 -45.417969 46.09375 -45.417969 Z M 46.09375 -45.417969 "/></g></g></g><g fill="#ffffff" fill-opacity="1"><g transform="translate(910.810986, 226.220797)"><g><path d="M 20.011719 -39.527344 C 23.878906 -39.527344 27.117188 -38.089844 29.320312 -35.570312 C 29.859375 -34.988281 30.894531 -34.898438 31.433594 -35.390625 L 33.996094 -37.773438 C 34.714844 -38.449219 34.761719 -39.125 34.132812 -39.84375 C 30.714844 -43.933594 25.585938 -46.320312 20.011719 -46.320312 C 11.242188 -46.320312 5.800781 -40.519531 5.800781 -33.953125 C 5.800781 -26.308594 10.882812 -22.933594 20.238281 -20.144531 C 26.710938 -18.078125 29.90625 -15.828125 29.90625 -12.1875 C 29.90625 -8.320312 25.8125 -5.800781 20.460938 -5.800781 C 16.503906 -5.800781 11.601562 -8.183594 9.308594 -11.289062 C 8.679688 -12.007812 7.78125 -12.050781 7.238281 -11.511719 L 4.453125 -8.632812 C 3.867188 -8.050781 3.734375 -7.375 4.363281 -6.65625 C 7.824219 -2.070312 14.390625 0.945312 20.460938 0.945312 C 29.949219 0.945312 36.875 -3.914062 36.875 -11.917969 C 36.875 -19.5625 31.839844 -23.472656 22.125 -26.441406 C 14.886719 -28.644531 12.679688 -30.488281 12.679688 -33.503906 C 12.679688 -37.011719 15.738281 -39.527344 20.011719 -39.527344 Z M 20.011719 -39.527344 "/></g></g></g><g fill="#ffffff" fill-opacity="1"><g transform="translate(951.525903, 226.220797)"><g/></g></g><g fill="#ffffff" fill-opacity="1"><g transform="translate(978.354652, 226.220797)"><g><path d="M 37.550781 -42.675781 C 34.535156 -44.925781 30.667969 -46.320312 27.429688 -46.320312 C 21.316406 -46.320312 15.738281 -42.585938 13.042969 -37.191406 L 11.917969 -44.566406 C 11.78125 -45.105469 11.332031 -45.417969 10.792969 -45.417969 L 8.050781 -45.417969 C 7.375 -45.417969 6.96875 -45.015625 6.96875 -44.296875 L 6.96875 -0.988281 C 6.96875 -0.269531 7.328125 0.0898438 8.050781 0.0898438 L 12.679688 0.0898438 C 13.402344 0.0898438 13.804688 -0.269531 13.804688 -0.988281 L 13.804688 -26.9375 C 13.804688 -34.222656 19.335938 -40.292969 26.621094 -40.292969 C 29.003906 -40.292969 31.792969 -39.257812 34.042969 -37.550781 C 34.714844 -37.054688 35.347656 -37.101562 35.796875 -37.773438 L 37.863281 -41.058594 C 38.222656 -41.640625 38.042969 -42.273438 37.550781 -42.675781 Z M 37.550781 -42.675781 "/></g></g></g><g fill="#ffffff" fill-opacity="1"><g transform="translate(1018.665161, 226.220797)"><g><path d="M 26.800781 -46.320312 C 13.894531 -46.320312 3.777344 -35.886719 3.777344 -22.621094 C 3.777344 -9.535156 14.164062 0.988281 27.566406 0.988281 C 33.1875 0.988281 39.753906 -1.214844 43.890625 -4.992188 C 44.386719 -5.484375 44.429688 -6.207031 44.027344 -6.699219 L 41.550781 -9.984375 C 41.148438 -10.433594 40.429688 -10.566406 39.886719 -10.117188 C 36.605469 -7.195312 31.929688 -5.578125 27.792969 -5.578125 C 18.886719 -5.578125 11.871094 -11.78125 10.925781 -19.742188 L 45.554688 -19.742188 C 47.621094 -19.742188 49.0625 -22.035156 49.0625 -24.195312 C 49.0625 -36.964844 39.617188 -46.320312 26.800781 -46.320312 Z M 26.621094 -39.84375 C 35.167969 -39.84375 41.460938 -34.222656 42.363281 -26.039062 L 10.972656 -26.039062 C 12.1875 -33.953125 18.664062 -39.84375 26.621094 -39.84375 Z M 26.621094 -39.84375 "/></g></g></g><g fill="#ffffff" fill-opacity="1"><g transform="translate(1071.468769, 226.220797)"><g><path d="M 20.011719 -39.527344 C 23.878906 -39.527344 27.117188 -38.089844 29.320312 -35.570312 C 29.859375 -34.988281 30.894531 -34.898438 31.433594 -35.390625 L 33.996094 -37.773438 C 34.714844 -38.449219 34.761719 -39.125 34.132812 -39.84375 C 30.714844 -43.933594 25.585938 -46.320312 20.011719 -46.320312 C 11.242188 -46.320312 5.800781 -40.519531 5.800781 -33.953125 C 5.800781 -26.308594 10.882812 -22.933594 20.238281 -20.144531 C 26.710938 -18.078125 29.90625 -15.828125 29.90625 -12.1875 C 29.90625 -8.320312 25.8125 -5.800781 20.460938 -5.800781 C 16.503906 -5.800781 11.601562 -8.183594 9.308594 -11.289062 C 8.679688 -12.007812 7.78125 -12.050781 7.238281 -11.511719 L 4.453125 -8.632812 C 3.867188 -8.050781 3.734375 -7.375 4.363281 -6.65625 C 7.824219 -2.070312 14.390625 0.945312 20.460938 0.945312 C 29.949219 0.945312 36.875 -3.914062 36.875 -11.917969 C 36.875 -19.5625 31.839844 -23.472656 22.125 -26.441406 C 14.886719 -28.644531 12.679688 -30.488281 12.679688 -33.503906 C 12.679688 -37.011719 15.738281 -39.527344 20.011719 -39.527344 Z M 20.011719 -39.527344 "/></g></g></g><g fill="#ffffff" fill-opacity="1"><g transform="translate(1112.183686, 226.220797)"><g><path d="M 46.09375 -45.417969 L 41.417969 -45.417969 C 40.742188 -45.417969 40.339844 -45.058594 40.339844 -44.339844 L 40.339844 -18.257812 C 40.339844 -11.152344 33.996094 -5.214844 26.21875 -5.214844 C 18.574219 -5.214844 13.355469 -10.476562 13.355469 -17.898438 L 13.355469 -44.296875 C 13.355469 -44.925781 12.90625 -45.375 12.230469 -45.375 L 7.554688 -45.375 C 6.925781 -45.375 6.519531 -44.925781 6.519531 -44.296875 L 6.519531 -17.539062 C 6.519531 -6.339844 13.851562 1.035156 24.328125 1.035156 C 31.523438 1.035156 38.089844 -3.101562 41.011719 -8.859375 L 42.226562 -0.765625 C 42.363281 -0.269531 42.8125 0.0898438 43.351562 0.0898438 L 46.09375 0.0898438 C 46.769531 0.0898438 47.171875 -0.359375 47.171875 -1.035156 L 47.171875 -44.339844 C 47.171875 -45.058594 46.769531 -45.417969 46.09375 -45.417969 Z M 46.09375 -45.417969 "/></g></g></g><g fill="#ffffff" fill-opacity="1"><g transform="translate(1166.290486, 226.220797)"><g><path d="M 12.679688 -68.445312 L 8.003906 -68.445312 C 7.285156 -68.445312 6.96875 -68.128906 6.96875 -67.410156 L 6.96875 -0.945312 C 6.96875 -0.269531 7.285156 0.0898438 8.003906 0.0898438 L 12.679688 0.0898438 C 13.402344 0.0898438 13.804688 -0.269531 13.804688 -0.945312 L 13.804688 -67.410156 C 13.804688 -68.128906 13.402344 -68.445312 12.679688 -68.445312 Z M 12.679688 -68.445312 "/></g></g></g><g fill="#ffffff" fill-opacity="1"><g transform="translate(1187.007503, 226.220797)"><g><path d="M 26.039062 -5.53125 C 20.28125 -5.53125 16.097656 -9.265625 16.097656 -15.019531 L 16.097656 -39.617188 L 25.8125 -39.617188 C 26.488281 -39.617188 26.847656 -40.023438 26.847656 -40.652344 L 26.847656 -44.386719 C 26.847656 -45.015625 26.441406 -45.375 25.8125 -45.375 L 16.054688 -45.375 L 16.054688 -60.257812 C 16.054688 -61.023438 15.605469 -61.339844 14.839844 -61.160156 L 10.117188 -60.125 C 9.535156 -59.945312 9.265625 -59.496094 9.265625 -58.910156 L 9.265625 -45.375 L 3.011719 -45.375 C 2.339844 -45.375 1.980469 -44.96875 1.980469 -44.296875 L 1.980469 -40.652344 C 1.980469 -40.023438 2.339844 -39.617188 3.011719 -39.617188 L 9.265625 -39.617188 L 9.265625 -15.109375 C 9.265625 -5.171875 16.054688 0.945312 25.949219 0.945312 C 26.890625 0.945312 27.566406 0.40625 27.566406 -0.316406 L 27.566406 -4.316406 C 27.566406 -4.992188 26.9375 -5.53125 26.039062 -5.53125 Z M 26.039062 -5.53125 "/></g></g></g><g fill="#ffffff" fill-opacity="1"><g transform="translate(1219.228956, 226.220797)"><g><path d="M 49.78125 -45.417969 L 47.082031 -45.417969 C 46.5 -45.417969 46.09375 -45.105469 45.914062 -44.566406 L 44.609375 -35.839844 C 40.832031 -42.40625 34.132812 -46.410156 26.171875 -46.410156 C 13.535156 -46.410156 3.777344 -36.246094 3.777344 -22.664062 C 3.777344 -9.355469 13.582031 0.898438 26.21875 0.898438 C 34.132812 0.898438 40.832031 -3.148438 44.609375 -9.578125 L 45.914062 -0.765625 C 46.09375 -0.269531 46.5 0.0898438 47.082031 0.0898438 L 49.78125 0.0898438 C 50.457031 0.0898438 50.90625 -0.359375 50.90625 -1.035156 L 50.90625 -44.296875 C 50.90625 -45.015625 50.457031 -45.417969 49.78125 -45.417969 Z M 27.386719 -5.800781 C 18.167969 -5.800781 10.65625 -13.265625 10.65625 -22.710938 C 10.65625 -32.289062 18.121094 -39.664062 27.339844 -39.664062 C 36.785156 -39.664062 44.386719 -32.289062 44.386719 -22.710938 C 44.386719 -13.265625 36.832031 -5.800781 27.386719 -5.800781 Z M 27.386719 -5.800781 "/></g></g></g><g fill="#ffffff" fill-opacity="1"><g transform="translate(1277.065754, 226.220797)"><g><path d="M 49.871094 -70.511719 L 45.195312 -70.511719 C 44.566406 -70.511719 44.117188 -70.109375 44.117188 -69.433594 L 44.207031 -36.558594 C 40.339844 -42.675781 33.816406 -46.410156 26.171875 -46.410156 C 13.535156 -46.410156 3.777344 -36.246094 3.777344 -22.664062 C 3.777344 -9.355469 13.582031 0.898438 26.21875 0.898438 C 34.175781 0.898438 40.921875 -3.191406 44.699219 -9.757812 L 46.050781 -0.765625 C 46.183594 -0.269531 46.589844 0.0898438 47.171875 0.0898438 L 49.917969 0.0898438 C 50.589844 0.0898438 50.996094 -0.359375 50.996094 -1.035156 L 50.996094 -69.433594 C 50.996094 -70.109375 50.589844 -70.511719 49.871094 -70.511719 Z M 27.386719 -5.800781 C 18.167969 -5.800781 10.65625 -13.265625 10.65625 -22.710938 C 10.65625 -32.289062 18.121094 -39.664062 27.339844 -39.664062 C 36.785156 -39.664062 44.386719 -32.289062 44.386719 -22.710938 C 44.386719 -13.265625 36.832031 -5.800781 27.386719 -5.800781 Z M 27.386719 -5.800781 "/></g></g></g><g fill="#ffffff" fill-opacity="1"><g transform="translate(1334.992431, 226.220797)"><g><path d="M 3.777344 -22.664062 C 3.777344 -9.488281 14.300781 0.945312 27.703125 0.945312 C 41.011719 0.945312 51.445312 -9.488281 51.445312 -22.664062 C 51.445312 -35.929688 41.011719 -46.320312 27.703125 -46.320312 C 14.300781 -46.320312 3.777344 -35.929688 3.777344 -22.664062 Z M 10.703125 -22.664062 C 10.703125 -32.332031 18.078125 -39.753906 27.65625 -39.753906 C 37.191406 -39.753906 44.519531 -32.332031 44.519531 -22.664062 C 44.519531 -13.085938 37.191406 -5.621094 27.65625 -5.621094 C 18.078125 -5.621094 10.703125 -13.085938 10.703125 -22.664062 Z M 10.703125 -22.664062 "/></g></g></g><g fill="#ffffff" fill-opacity="1"><g transform="translate(1390.177771, 226.220797)"><g><path d="M 20.011719 -39.527344 C 23.878906 -39.527344 27.117188 -38.089844 29.320312 -35.570312 C 29.859375 -34.988281 30.894531 -34.898438 31.433594 -35.390625 L 33.996094 -37.773438 C 34.714844 -38.449219 34.761719 -39.125 34.132812 -39.84375 C 30.714844 -43.933594 25.585938 -46.320312 20.011719 -46.320312 C 11.242188 -46.320312 5.800781 -40.519531 5.800781 -33.953125 C 5.800781 -26.308594 10.882812 -22.933594 20.238281 -20.144531 C 26.710938 -18.078125 29.90625 -15.828125 29.90625 -12.1875 C 29.90625 -8.320312 25.8125 -5.800781 20.460938 -5.800781 C 16.503906 -5.800781 11.601562 -8.183594 9.308594 -11.289062 C 8.679688 -12.007812 7.78125 -12.050781 7.238281 -11.511719 L 4.453125 -8.632812 C 3.867188 -8.050781 3.734375 -7.375 4.363281 -6.65625 C 7.824219 -2.070312 14.390625 0.945312 20.460938 0.945312 C 29.949219 0.945312 36.875 -3.914062 36.875 -11.917969 C 36.875 -19.5625 31.839844 -23.472656 22.125 -26.441406 C 14.886719 -28.644531 12.679688 -30.488281 12.679688 -33.503906 C 12.679688 -37.011719 15.738281 -39.527344 20.011719 -39.527344 Z M 20.011719 -39.527344 "/></g></g></g></svg>